<svg width="104" height="104" viewBox="0 0 104 104" fill="none" xmlns="http://www.w3.org/2000/svg">
<g opacity="0.5" clip-path="url(#clip0_132_130)">
<path fill-rule="evenodd" clip-rule="evenodd" d="M56.16 2.45139C55.2479 2.20849 54.2766 2.33718 53.4592 2.80924C52.6418 3.2813 52.0449 4.05822 51.7994 4.96967L34.4686 69.6577C34.2259 70.5708 34.3556 71.543 34.8292 72.3605C35.3028 73.1781 36.0815 73.7744 36.9943 74.0182L82.1823 86.1268C83.0955 86.3695 84.0676 86.2398 84.8852 85.7662C85.7028 85.2926 86.299 84.5139 86.5429 83.6011L103.889 18.9205C104.01 18.4679 104.041 17.9958 103.979 17.5312C103.918 17.0666 103.766 16.6187 103.531 16.213C103.297 15.8073 102.984 15.4519 102.612 15.167C102.24 14.882 101.816 14.6732 101.363 14.5525L56.16 2.45139ZM25.5023 67.2508L37.3583 23.0137L2.64459 32.3068C2.19179 32.4275 1.76723 32.6363 1.39519 32.9212C1.02314 33.2062 0.710903 33.5616 0.47633 33.9673C0.241757 34.373 0.0894478 34.8209 0.0281121 35.2855C-0.0332236 35.75 -0.00238291 36.2222 0.118871 36.6748L17.4646 101.355C17.7085 102.268 18.3047 103.047 19.1223 103.52C19.9399 103.994 20.912 104.124 21.8252 103.881L67.0206 91.7725L67.1914 91.7205L34.58 82.992C32.9491 82.555 31.4202 81.8009 30.0809 80.7728C28.7415 79.7447 27.6179 78.4628 26.7741 77.0002C25.9304 75.5377 25.3832 73.9232 25.1637 72.2491C24.9442 70.575 25.0567 68.874 25.4949 67.2434L25.5023 67.2508Z" fill="url(#paint0_linear_132_130)"/>
</g>
<defs>
<linearGradient id="paint0_linear_132_130" x1="52.0037" y1="2.3313" x2="52.0037" y2="104.001" gradientUnits="userSpaceOnUse">
<stop offset="0.24" stop-color="#FF00E6"/>
<stop offset="1" stop-color="#5E0055"/>
</linearGradient>
<clipPath id="clip0_132_130">
<rect width="104" height="104" fill="white"/>
</clipPath>
</defs>
</svg>
